<?xml version="1.0" encoding="UTF-8"?>
<svg id="Camada_1" xmlns="http://www.w3.org/2000/svg" version="1.1" viewBox="0 0 512 512">
  <!-- Generator: Adobe Illustrator 30.2.1, SVG Export Plug-In . SVG Version: 2.1.1 Build 1)  -->
  <defs>
    <style>
      .st0 {
        fill: #fff;
      }

      .st1 {
        fill: #2fc7f7;
      }
    </style>
  </defs>
  <path class="st1" d="M472.2,378.4c-13,12.4-30.1,19.4-47.9,20.9-47.8-.8-296.8,2.2-345-1.4-81.4-13.6-83.5-130.9-4.9-150.7-18.9-70.7,45.8-145.2,119.2-133.9,39.5,2.6,70.4,33.7,88.5,63.4,22.5-11.1,48.9-12.9,72.4-4.9,32.1,10.4,57.1,39.8,62.8,73,66.6-.6,106.9,86.4,54.8,133.6Z"/>
  <g>
    <path class="st0" d="M110.3,176.7h17c12.5,0,18.2,7.2,18.2,14.7s-2.5,9.6-7,12.1v.2c6.8,1.7,11,7.2,11,14s-6.8,17.2-20.4,17.2h-18.7v-58.2ZM126,201.2c5.9,0,9.1-3.2,9.1-7.8s-2.9-7.8-9.1-7.8h-4.9v15.5s4.9,0,4.9,0ZM127.7,226.3c7,0,11-2.7,11-8.5s-3.8-7.9-9.6-7.9h-8v16.4h6.6ZM157.4,180.2c0-3.6,2.9-6.4,6.4-6.4s6.6,2.7,6.6,6.4-2.9,6.2-6.6,6.2-6.4-2.6-6.4-6.2ZM158.5,193.2h10.6v41.8h-10.6v-41.8ZM183.2,224.8v-23.3h-7.6v-8.3h7.6v-9.6l10.6-3v12.7h12.7l-2.7,8.3h-10v20.6c0,4,1.3,5.3,4.2,5.3s4.7-1,6.4-2.1l3.2,7.2c-3,2.1-8.1,3.2-12.3,3.2-7.5.1-12.1-4-12.1-11ZM213.3,193.2h8.9l1.1,4.7c3.8-3.8,7.2-5.7,11.5-5.7s4.2.6,5.9,1.7l-3.8,8.9c-1.9-1.1-3.6-1.3-4.7-1.3-2.9,0-5.1,1.1-8.5,4.2v29.5h-10.6v-42s.2,0,.2,0ZM244.9,180.2c0-3.6,2.9-6.4,6.4-6.4s6.4,2.9,6.4,6.4-2.9,6.2-6.6,6.2-6.2-2.6-6.2-6.2ZM246,193.2h10.6v41.8h-10.6v-41.8ZM278,214l-15.1-20.8h11l9.8,13.6,10-13.6h11l-15.3,20.8,15.5,21h-11l-10-14-10.2,14h-11l15.3-21Z"/>
    <g>
      <path class="st0" d="M110.3,371.1h79.6v-17.5h-52.8c7.2-28.9,51.5-35.3,51.5-67.7s-12-30.3-36.6-30.3-28.9,4.6-38.3,9.4l5.5,16.2c8.5-3.8,17.9-7.7,29.4-7.7s17.9,3.8,17.9,14.5c.4,23.9-51.5,25.6-56.2,83.1ZM349.1,346.8c-24.3,0-44.3-20-44.3-44.3s20-44.3,44.3-44.3,44.3,20,44.3,44.3-20,44.3-44.3,44.3ZM349.1,266.3c-20,0-36.2,16.2-36.2,36.2s16.2,36.2,36.2,36.2,36.2-16.2,36.2-36.2-16.2-36.2-36.2-36.2Z"/>
      <path class="st0" d="M374.2,302.5h-22.1v-22.1h-6v28.1h28.1v-6h0Z"/>
      <path class="st0" d="M264,326.4v-70.7h-14.9l-56.6,73.6v14h51.1v28.1h20.4v-28.1h17v-17c0,0-17,0-17,0ZM243.5,309.8v16.2h-13.7c-4.3,0-12,.4-14.5.4l28.9-39.2c0,3.4-.8,13.6-.8,22.6h0Z"/>
    </g>
  </g>
</svg>