<?xml version="1.0" encoding="UTF-8"?>
<svg id="Camada_1" xmlns="http://www.w3.org/2000/svg" version="1.1" xmlns:xlink="http://www.w3.org/1999/xlink" viewBox="0 0 512 512">
  <!-- Generator: Adobe Illustrator 30.2.1, SVG Export Plug-In . SVG Version: 2.1.1 Build 1)  -->
  <defs>
    <style>
      .st0 {
        fill: url(#Gradiente_sem_nome_13);
      }

      .st1 {
        fill: #f2f2f2;
      }
    </style>
    <linearGradient id="Gradiente_sem_nome_13" data-name="Gradiente sem nome 13" x1="-1.7" y1="-1.2" x2="499.6" y2="499.1" gradientUnits="userSpaceOnUse">
      <stop offset="0" stop-color="#74e3bb"/>
      <stop offset="0" stop-color="#69d8c1"/>
      <stop offset=".1" stop-color="#48bad4"/>
      <stop offset=".3" stop-color="#2ea0e3"/>
      <stop offset=".4" stop-color="#198def"/>
      <stop offset=".5" stop-color="#0b7ff8"/>
      <stop offset=".7" stop-color="#0277fd"/>
      <stop offset="1" stop-color="#0075ff"/>
    </linearGradient>
  </defs>
  <rect class="st0" width="512" height="512"/>
  <g>
    <path class="st1" d="M299.5,290.5h40.3v-8.9h-26.8c3.7-14.7,26.1-17.9,26.1-34.3s-6.1-15.3-18.5-15.3-14.7,2.4-19.4,4.7l2.8,8.2c4.3-1.9,9-3.9,14.9-3.9s9,1.9,9,7.3c.2,12.1-26.1,13-28.4,42.1ZM420.5,278.2c-12.3,0-22.4-10.1-22.4-22.4s10.1-22.4,22.4-22.4,22.4,10.1,22.4,22.4-10.1,22.4-22.4,22.4ZM420.5,237.4c-10.1,0-18.3,8.2-18.3,18.3s8.2,18.3,18.3,18.3,18.3-8.2,18.3-18.3-8.2-18.3-18.3-18.3Z"/>
    <path class="st1" d="M433.2,255.8h-11.2v-11.2h-3v14.2h14.2v-3h0Z"/>
    <path class="st1" d="M69.1,224h19.4c14.2,0,20.7,8.2,20.7,16.8s-2.8,11-8,13.8v.2c7.8,1.9,12.5,8.2,12.5,16s-7.8,19.6-23.3,19.6h-21.3v-66.4ZM87,251.9c6.7,0,10.4-3.7,10.4-8.9s-3.3-8.9-10.4-8.9h-5.6v17.7s5.6,0,5.6,0ZM88.9,280.6c8,0,12.5-3,12.5-9.7s-4.3-9-11-9h-9.1v18.8h7.6ZM122.8,227.9c0-4.1,3.3-7.3,7.3-7.3s7.6,3,7.6,7.3-3.3,7.1-7.6,7.1-7.3-3-7.3-7.1ZM124.1,242.8h12.1v47.7h-12.1v-47.7ZM152.3,278.8v-26.5h-8.6v-9.5h8.6v-11l12.1-3.4v14.5h14.5l-3,9.5h-11.4v23.5c0,4.5,1.5,6.1,4.7,6.1s5.4-1.1,7.3-2.4l3.7,8.2c-3.4,2.4-9.3,3.7-14,3.7-8.6.1-13.8-4.6-13.8-12.6ZM186.7,242.8h10.1l1.3,5.4c4.3-4.3,8.2-6.5,13.2-6.5s4.7.6,6.7,1.9l-4.3,10.1c-2.2-1.3-4.1-1.5-5.4-1.5-3.3,0-5.8,1.3-9.7,4.7v33.6h-12.1v-47.9s.2,0,.2,0ZM222.7,227.9c0-4.1,3.3-7.3,7.3-7.3s7.3,3.3,7.3,7.3-3.3,7.1-7.6,7.1-7.1-3-7.1-7.1ZM224,242.8h12.1v47.7h-12.1v-47.7ZM260.4,266.5l-17.3-23.7h12.5l11.2,15.5,11.4-15.5h12.5l-17.5,23.7,17.7,24h-12.5l-11.4-16-11.6,16h-12.5l17.5-24Z"/>
    <path class="st1" d="M377.3,267.8v-35.8h-7.6l-28.7,37.3v7.1h25.9v14.2h10.4v-14.2h8.6v-8.6s-8.6,0-8.6,0ZM367,259.4v8.2h-6.9c-2.2,0-6.1.2-7.3.2l14.7-19.9c0,1.7-.4,6.9-.4,11.4h0Z"/>
  </g>
</svg>