<?xml version="1.0" encoding="UTF-8"?>
<svg id="Camada_1" xmlns="http://www.w3.org/2000/svg" version="1.1" viewBox="0 0 512 512">
  <!-- Generator: Adobe Illustrator 30.2.1, SVG Export Plug-In . SVG Version: 2.1.1 Build 1)  -->
  <defs>
    <style>
      .st0 {
        fill: #fff;
      }
    </style>
  </defs>
  <path class="st0" d="M47.8,346h117.1v-25.7h-77.7c10.6-42.5,75.8-52,75.8-99.5s-17.6-44.5-53.8-44.5-42.5,6.8-56.3,13.8l8.1,23.8c12.5-5.6,26.3-11.3,43.2-11.3s26.3,5.6,26.3,21.3c.7,35.2-75.8,37.7-82.6,122.2ZM399.1,310.3c-35.7,0-65.1-29.4-65.1-65.1s29.4-65.1,65.1-65.1,65.1,29.4,65.1,65.1-29.4,65.1-65.1,65.1ZM399.1,191.8c-29.4,0-53.2,23.8-53.2,53.2s23.8,53.2,53.2,53.2,53.2-23.8,53.2-53.2-23.8-53.2-53.2-53.2Z"/>
  <path class="st0" d="M436,245.1h-32.6v-32.6h-8.8v41.4h41.4v-8.8h0Z"/>
  <path class="st0" d="M273.9,280.2v-104h-21.9l-83.2,108.3v20.6h75.1v41.4h30.1v-41.4h25.1v-25.1c0,.1-25.1.1-25.1.1ZM243.8,255.8v23.8h-20.1c-6.3,0-17.6.7-21.3.7l42.5-57.6c0,5-1.2,20-1.2,33.2h0Z"/>
</svg>